<svg width="18" height="20" viewBox="0 0 18 20" fill="none" xmlns="http://www.w3.org/2000/svg">
<path d="M16.2338 20H1.42857C0.639594 20 0 19.3604 0 18.5714V1.42857C0 0.639594 0.639593 0 1.42857 0H11.039L17.6623 6.62338V18.5714C17.6623 19.3604 17.0227 20 16.2338 20Z" fill="url(#paint0_linear_1267_9237)"/>
<g opacity="0.82" filter="url(#filter0_f_1267_9237)">
<rect x="3.1167" y="9.67529" width="11.5584" height="5.45455" fill="#0F7D56" fill-opacity="0.27" style="mix-blend-mode:darken"/>
</g>
<path d="M4.1427 14.1166C4.08456 14.1166 4.03326 14.0961 3.9888 14.055C3.94777 14.0106 3.92725 13.9593 3.92725 13.9011C3.92725 13.8464 3.94264 13.7985 3.97341 13.7575L5.15841 12.3006L3.98367 10.854C3.9529 10.8129 3.93751 10.7651 3.93751 10.7103C3.93751 10.6454 3.95803 10.5924 3.99906 10.5513C4.04352 10.5069 4.09824 10.4846 4.16322 10.4846C4.20084 10.4846 4.23675 10.4932 4.27095 10.5103C4.30515 10.5274 4.33251 10.5496 4.35303 10.577L5.43543 11.9518L6.51783 10.5667C6.55545 10.512 6.61188 10.4846 6.68712 10.4846C6.74867 10.4846 6.80168 10.5069 6.84614 10.5513C6.8906 10.5924 6.91283 10.6437 6.91283 10.7052C6.91283 10.7531 6.89915 10.7958 6.87179 10.8335L5.68679 12.2955L6.87179 13.7524C6.90257 13.7866 6.91796 13.831 6.91796 13.8857C6.91796 13.9507 6.89573 14.0054 6.85127 14.0499C6.81023 14.0944 6.75551 14.1166 6.68712 14.1166C6.61188 14.1166 6.55032 14.0841 6.50244 14.0191L5.40465 12.6392L4.32225 14.0242C4.27095 14.0858 4.2111 14.1166 4.1427 14.1166Z" fill="white"/>
<path d="M8.32302 14.0909C8.23411 14.0909 8.15716 14.0602 8.09218 13.9986C8.03062 13.9336 7.99984 13.8567 7.99984 13.7678V10.7206C7.99984 10.6556 8.02207 10.6009 8.06653 10.5565C8.11099 10.5086 8.16571 10.4846 8.23069 10.4846C8.29566 10.4846 8.35038 10.5086 8.39484 10.5565C8.44272 10.6009 8.46666 10.6556 8.46666 10.7206V13.6241H10.1441C10.2091 13.6241 10.2638 13.6481 10.3083 13.6959C10.3562 13.7404 10.3801 13.7951 10.3801 13.8601C10.3801 13.9251 10.3562 13.9798 10.3083 14.0242C10.2638 14.0687 10.2091 14.0909 10.1441 14.0909H8.32302Z" fill="white"/>
<path d="M12.4432 14.1422C12.0089 14.1422 11.6019 14.0602 11.2223 13.896C11.1812 13.8789 11.147 13.8515 11.1197 13.8139C11.0923 13.7729 11.0786 13.7301 11.0786 13.6857C11.0786 13.6275 11.0975 13.5779 11.1351 13.5369C11.1761 13.4924 11.2274 13.4702 11.289 13.4702C11.3232 13.4702 11.3557 13.4771 11.3864 13.4907C11.7011 13.631 12.0379 13.7011 12.397 13.7011C12.9955 13.7011 13.2947 13.5044 13.2947 13.1111C13.2947 13.0085 13.2554 12.923 13.1768 12.8546C13.1015 12.7862 13.0075 12.7332 12.8946 12.6956C12.7818 12.6546 12.621 12.6067 12.4124 12.552C12.1354 12.4802 11.9114 12.4118 11.7404 12.3468C11.5694 12.2784 11.4223 12.1775 11.2992 12.0441C11.1761 11.9107 11.1146 11.7329 11.1146 11.5106C11.1146 11.3157 11.1659 11.1395 11.2685 10.9822C11.371 10.8215 11.5215 10.695 11.7199 10.6026C11.9217 10.5069 12.1628 10.459 12.4432 10.459C12.8194 10.459 13.1597 10.5154 13.464 10.6283C13.5598 10.6625 13.6077 10.7309 13.6077 10.8335C13.6077 10.8882 13.5889 10.9378 13.5512 10.9822C13.5136 11.0267 13.464 11.0489 13.4025 11.0489C13.382 11.0489 13.3546 11.0421 13.3204 11.0284C13.0536 10.9361 12.7783 10.8899 12.4945 10.8899C12.2243 10.8899 12.0037 10.9412 11.8327 11.0438C11.6652 11.1464 11.5814 11.29 11.5814 11.4747C11.5814 11.5978 11.6207 11.6987 11.6994 11.7774C11.7814 11.8526 11.8823 11.9124 12.002 11.9569C12.1251 11.9979 12.291 12.0424 12.4996 12.0903C12.7698 12.1553 12.987 12.2202 13.1511 12.2852C13.3187 12.3502 13.4606 12.4511 13.5769 12.5879C13.6966 12.7247 13.7564 12.9094 13.7564 13.1419C13.7564 13.3334 13.7017 13.5061 13.5923 13.66C13.4828 13.8105 13.3289 13.9285 13.1306 14.014C12.9322 14.0995 12.7031 14.1422 12.4432 14.1422Z" fill="white"/>
<path fill-rule="evenodd" clip-rule="evenodd" d="M3.89689 14.1469L3.89336 14.1431C3.83117 14.0757 3.79736 13.9933 3.79736 13.9011C3.79736 13.8203 3.82071 13.7446 3.86951 13.6796L3.87104 13.6775L4.99105 12.3005L3.88127 10.9339L3.87977 10.9319C3.83097 10.8668 3.80762 10.7912 3.80762 10.7103C3.80762 10.6154 3.83882 10.5279 3.90722 10.4595C3.97693 10.3898 4.06507 10.3548 4.16321 10.3548C4.22133 10.3548 4.27709 10.3681 4.32901 10.3941C4.37859 10.4189 4.42204 10.453 4.45588 10.4977L5.43504 11.7413L6.41333 10.4895C6.47872 10.3969 6.57715 10.3548 6.6871 10.3548C6.78306 10.3548 6.8682 10.3906 6.93614 10.4577C7.00649 10.5235 7.04269 10.609 7.04269 10.7052C7.04269 10.7797 7.02081 10.8493 6.97681 10.9098L6.97481 10.9126L5.85407 12.2953L6.97076 13.6682C7.02517 13.7302 7.04782 13.8065 7.04782 13.8857C7.04782 13.983 7.01341 14.0705 6.94489 14.1399C6.87615 14.2133 6.78567 14.2464 6.6871 14.2464C6.5681 14.2464 6.46961 14.1923 6.39943 14.0982L5.40555 12.8489L4.42331 14.1058L4.422 14.1074C4.35073 14.1929 4.25642 14.2464 4.14269 14.2464C4.05047 14.2464 3.96808 14.2126 3.9007 14.1504L3.89689 14.1469ZM5.40464 12.6392L6.50243 14.0191C6.55031 14.0841 6.61187 14.1166 6.6871 14.1166C6.7555 14.1166 6.81022 14.0943 6.85126 14.0499C6.89572 14.0054 6.91795 13.9507 6.91795 13.8857C6.91795 13.831 6.90256 13.7865 6.87178 13.7523L5.68678 12.2955L6.87178 10.8335C6.89914 10.7958 6.91282 10.7531 6.91282 10.7052C6.91282 10.6436 6.89059 10.5923 6.84613 10.5513C6.80167 10.5069 6.74866 10.4846 6.6871 10.4846C6.61187 10.4846 6.55544 10.512 6.51782 10.5667L5.43542 11.9518L4.35301 10.577C4.33249 10.5496 4.30513 10.5274 4.27093 10.5103C4.23674 10.4932 4.20083 10.4846 4.16321 10.4846C4.09823 10.4846 4.04351 10.5069 3.99905 10.5513C3.95801 10.5923 3.93749 10.6454 3.93749 10.7103C3.93749 10.7651 3.95288 10.8129 3.98366 10.854L5.1584 12.3006L3.9734 13.7575C3.94262 13.7985 3.92723 13.8464 3.92723 13.9011C3.92723 13.9593 3.94775 14.0106 3.98879 14.055C4.03325 14.096 4.08455 14.1166 4.14269 14.1166C4.21109 14.1166 4.27093 14.0858 4.32223 14.0242L5.40464 12.6392ZM8.0003 14.0904L7.99789 14.0879C7.91365 13.999 7.86996 13.8901 7.86996 13.7677V10.7206C7.86996 10.6233 7.90441 10.5358 7.97299 10.4663C8.04164 10.3933 8.13016 10.3548 8.23067 10.3548C8.33038 10.3548 8.41829 10.3927 8.4867 10.4646C8.55861 10.533 8.59652 10.6209 8.59652 10.7206V13.4942H10.1441C10.2438 13.4942 10.3317 13.5321 10.4001 13.604C10.4721 13.6725 10.51 13.7604 10.51 13.8601C10.51 13.9606 10.4714 14.0491 10.3984 14.1178C10.329 14.1863 10.2415 14.2208 10.1441 14.2208H8.32301C8.20062 14.2208 8.09177 14.1771 8.00285 14.0929L8.0003 14.0904ZM10.3083 14.0242C10.3562 13.9798 10.3801 13.9251 10.3801 13.8601C10.3801 13.7951 10.3562 13.7404 10.3083 13.6959C10.2638 13.648 10.2091 13.6241 10.1441 13.6241H8.46665V10.7206C8.46665 10.6556 8.44271 10.6009 8.39483 10.5564C8.35037 10.5086 8.29565 10.4846 8.23067 10.4846C8.1657 10.4846 8.11098 10.5086 8.06652 10.5564C8.02206 10.6009 7.99983 10.6556 7.99983 10.7206V13.7677C7.99983 13.8567 8.03061 13.9336 8.09217 13.9986C8.15715 14.0601 8.23409 14.0909 8.32301 14.0909H10.1441C10.2091 14.0909 10.2638 14.0687 10.3083 14.0242ZM11.0131 13.8882L11.0116 13.8859C10.9716 13.826 10.9488 13.7585 10.9488 13.6857C10.9488 13.5966 10.9787 13.5153 11.0393 13.4491L11.0396 13.4488C11.1057 13.3772 11.1919 13.3403 11.289 13.3403C11.341 13.3403 11.3915 13.3509 11.4392 13.372L11.4393 13.3721C11.7366 13.5046 12.0553 13.5712 12.397 13.5712C12.6862 13.5712 12.8804 13.5229 12.999 13.445C13.108 13.3734 13.1649 13.2691 13.1649 13.1111C13.1649 13.0468 13.1423 12.9968 13.0915 12.9526L13.0905 12.9517L13.0894 12.9507C13.0296 12.8964 12.9521 12.8517 12.8535 12.8188L12.8519 12.8182L12.8502 12.8176C12.743 12.7786 12.5868 12.732 12.3796 12.6776C12.3795 12.6776 12.3795 12.6776 12.3794 12.6776L12.4124 12.552C12.1354 12.4801 11.9114 12.4117 11.7404 12.3468C11.5694 12.2784 11.4223 12.1775 11.2992 12.0441C11.1761 11.9107 11.1145 11.7329 11.1145 11.5106C11.1145 11.3157 11.1658 11.1395 11.2684 10.9822C11.371 10.8215 11.5215 10.6949 11.7199 10.6026C11.9216 10.5069 12.1627 10.459 12.4432 10.459C12.8194 10.459 13.1597 10.5154 13.464 10.6283C13.5598 10.6625 13.6077 10.7309 13.6077 10.8335C13.6077 10.8882 13.5889 10.9378 13.5512 10.9822C13.5136 11.0267 13.464 11.0489 13.4025 11.0489C13.3819 11.0489 13.3546 11.0421 13.3204 11.0284C13.0536 10.936 12.7783 10.8899 12.4945 10.8899C12.2243 10.8899 12.0037 10.9412 11.8327 11.0438C11.6651 11.1464 11.5814 11.29 11.5814 11.4747C11.5814 11.5978 11.6207 11.6987 11.6993 11.7773C11.7814 11.8526 11.8823 11.9124 12.002 11.9569C12.1251 11.9979 12.291 12.0424 12.4996 12.0903C12.7698 12.1552 12.9869 12.2202 13.1511 12.2852C13.3187 12.3502 13.4606 12.4511 13.5769 12.5879C13.6966 12.7247 13.7564 12.9093 13.7564 13.1419C13.7564 13.3334 13.7017 13.5061 13.5923 13.66C13.4828 13.8105 13.3289 13.9285 13.1306 14.014C12.9322 14.0995 12.7031 14.1422 12.4432 14.1422C12.0088 14.1422 11.6019 14.0601 11.2223 13.896C11.1812 13.8789 11.147 13.8515 11.1197 13.8139C11.0923 13.7729 11.0786 13.7301 11.0786 13.6857C11.0786 13.6275 11.0974 13.5779 11.1351 13.5369C11.1761 13.4924 11.2274 13.4702 11.289 13.4702C11.3232 13.4702 11.3556 13.477 11.3864 13.4907C11.7011 13.6309 12.0379 13.701 12.397 13.701C12.9955 13.701 13.2947 13.5044 13.2947 13.1111C13.2947 13.0085 13.2554 12.923 13.1768 12.8546C13.1015 12.7862 13.0075 12.7332 12.8946 12.6956C12.7818 12.6546 12.621 12.6067 12.4124 12.552M11.1714 14.0155C11.1077 13.9888 11.0552 13.946 11.0146 13.8903L11.0131 13.8882M11.1714 14.0155C11.5679 14.1868 11.9923 14.2721 12.4432 14.2721C12.7172 14.2721 12.9644 14.227 13.182 14.1332C13.3983 14.04 13.5721 13.9086 13.6973 13.7364L13.6977 13.7358L13.6981 13.7353C13.8234 13.5591 13.8863 13.36 13.8863 13.1419C13.8863 12.8873 13.8205 12.6695 13.6752 12.5031C13.5452 12.3502 13.3857 12.2369 13.1984 12.1643C13.0264 12.0962 12.8029 12.0296 12.53 11.964L12.5293 11.9638L12.5287 11.9637C12.3231 11.9165 12.1625 11.8734 12.0452 11.8344C11.941 11.7954 11.8565 11.7447 11.7893 11.6836C11.7389 11.6323 11.7112 11.5662 11.7112 11.4747C11.7112 11.3388 11.7684 11.2356 11.9001 11.1548C12.0449 11.0681 12.2401 11.0198 12.4945 11.0198C12.763 11.0198 13.023 11.0632 13.2752 11.1502C13.3138 11.1654 13.3583 11.1788 13.4025 11.1788C13.4997 11.1788 13.5865 11.1416 13.6504 11.0661C13.7065 10.9998 13.7375 10.921 13.7375 10.8335C13.7375 10.7617 13.7206 10.6913 13.6781 10.6307C13.6358 10.5703 13.5758 10.5304 13.5085 10.5062C13.1878 10.3874 12.8321 10.3291 12.4432 10.3291C12.1485 10.3291 11.8876 10.3794 11.6646 10.4851C11.4477 10.5862 11.277 10.7277 11.1593 10.9118" fill="white"/>
<g filter="url(#filter1_d_1267_9237)">
<path d="M17.6624 6.62338C14.0044 6.62338 11.0391 3.65799 11.0391 0L17.6624 6.62338Z" fill="url(#paint1_linear_1267_9237)"/>
</g>
<defs>
<filter id="filter0_f_1267_9237" x="-35.8833" y="-29.3247" width="89.5586" height="83.4546" filterUnits="userSpaceOnUse" color-interpolation-filters="sRGB">
<feFlood flood-opacity="0" result="BackgroundImageFix"/>
<feBlend mode="normal" in="SourceGraphic" in2="BackgroundImageFix" result="shape"/>
<feGaussianBlur stdDeviation="19.5" result="effect1_foregroundBlur_1267_9237"/>
</filter>
<filter id="filter1_d_1267_9237" x="-11.9609" y="-24" width="56.6235" height="56.6233" filterUnits="userSpaceOnUse" color-interpolation-filters="sRGB">
<feFlood flood-opacity="0" result="BackgroundImageFix"/>
<feColorMatrix in="SourceAlpha" type="matrix" values="0 0 0 0 0 0 0 0 0 0 0 0 0 0 0 0 0 0 127 0" result="hardAlpha"/>
<feOffset dx="2" dy="1"/>
<feGaussianBlur stdDeviation="12.5"/>
<feColorMatrix type="matrix" values="0 0 0 0 0 0 0 0 0 0 0 0 0 0 0 0 0 0 0.33 0"/>
<feBlend mode="normal" in2="BackgroundImageFix" result="effect1_dropShadow_1267_9237"/>
<feBlend mode="normal" in="SourceGraphic" in2="effect1_dropShadow_1267_9237" result="shape"/>
</filter>
<linearGradient id="paint0_linear_1267_9237" x1="8.83117" y1="0" x2="8.83117" y2="20" gradientUnits="userSpaceOnUse">
<stop offset="0.000265127" stop-color="#83CC70"/>
<stop offset="1" stop-color="#61A850"/>
</linearGradient>
<linearGradient id="paint1_linear_1267_9237" x1="14.3508" y1="0" x2="14.3508" y2="6.62338" gradientUnits="userSpaceOnUse">
<stop stop-color="#3FAF43"/>
<stop offset="1" stop-color="#0E8312"/>
</linearGradient>
</defs>
</svg>
