<svg width="18" height="20" viewBox="0 0 18 20" fill="none" xmlns="http://www.w3.org/2000/svg">
<path d="M16.2338 20H1.42857C0.639594 20 0 19.3604 0 18.5714V1.42857C0 0.639594 0.639593 0 1.42857 0H11.039L17.6623 6.62338V18.5714C17.6623 19.3604 17.0227 20 16.2338 20Z" fill="url(#paint0_linear_1156_9186)"/>
<path d="M4.03993 14.1166C3.97495 14.1166 3.92023 14.0943 3.87577 14.0499C3.83131 14.0054 3.80908 13.9507 3.80908 13.8857V10.7462C3.80908 10.6812 3.83131 10.6265 3.87577 10.5821C3.92023 10.5342 3.97495 10.5103 4.03993 10.5103H5.20954C5.53443 10.5103 5.79947 10.565 6.00467 10.6744C6.20986 10.7838 6.35692 10.9241 6.44584 11.0951C6.53475 11.2661 6.57921 11.4507 6.57921 11.6491C6.57921 11.8474 6.53475 12.0321 6.44584 12.2031C6.35692 12.3741 6.20986 12.5143 6.00467 12.6238C5.79947 12.7332 5.53443 12.7879 5.20954 12.7879H4.2759V13.8857C4.2759 13.9507 4.25196 14.0054 4.20408 14.0499C4.15962 14.0943 4.1049 14.1166 4.03993 14.1166ZM5.16337 12.3467C5.5122 12.3467 5.75672 12.2801 5.89694 12.1467C6.04058 12.0133 6.11239 11.8474 6.11239 11.6491C6.11239 11.4507 6.04058 11.2849 5.89694 11.1515C5.75672 11.0181 5.5122 10.9514 5.16337 10.9514H4.2759V12.3467H5.16337Z" fill="white"/>
<path d="M7.84565 14.0909C7.78067 14.0909 7.72595 14.0687 7.68149 14.0242C7.63703 13.9798 7.6148 13.925 7.6148 13.8601V10.7462C7.6148 10.6812 7.63703 10.6265 7.68149 10.5821C7.72595 10.5342 7.78067 10.5103 7.84565 10.5103H8.87675C9.26662 10.5103 9.59664 10.5975 9.86682 10.7719C10.1404 10.9429 10.3456 11.1652 10.4824 11.4388C10.6192 11.7124 10.6876 11.9996 10.6876 12.3006C10.6876 12.6015 10.6192 12.8888 10.4824 13.1624C10.3456 13.436 10.1404 13.66 9.86682 13.8344C9.59664 14.0054 9.26662 14.0909 8.87675 14.0909H7.84565ZM8.82032 13.6549C9.10076 13.6549 9.34699 13.5984 9.55903 13.4856C9.77106 13.3693 9.93522 13.2103 10.0515 13.0085C10.1678 12.8033 10.2259 12.5673 10.2259 12.3006C10.2259 12.0338 10.1678 11.7996 10.0515 11.5978C9.93522 11.3926 9.77106 11.2336 9.55903 11.1207C9.34699 11.0044 9.10076 10.9463 8.82032 10.9463H8.08162V13.6549H8.82032Z" fill="white"/>
<path d="M12.0572 14.1166C11.9922 14.1166 11.9375 14.0943 11.893 14.0499C11.8485 14.0054 11.8263 13.9507 11.8263 13.8857V10.7462C11.8263 10.6812 11.8485 10.6265 11.893 10.5821C11.9375 10.5342 11.9922 10.5103 12.0572 10.5103H14.0527C14.1142 10.5103 14.1655 10.5325 14.2066 10.5769C14.251 10.618 14.2733 10.6693 14.2733 10.7308C14.2733 10.7924 14.251 10.8437 14.2066 10.8847C14.1655 10.9258 14.1142 10.9463 14.0527 10.9463H12.2931V12.08H13.8731C13.9347 12.08 13.986 12.1022 14.027 12.1467C14.0715 12.1877 14.0937 12.239 14.0937 12.3006C14.0937 12.3621 14.0715 12.4134 14.027 12.4545C13.986 12.4955 13.9347 12.516 13.8731 12.516H12.2931V13.8857C12.2931 13.9507 12.2692 14.0054 12.2213 14.0499C12.1768 14.0943 12.1221 14.1166 12.0572 14.1166Z" fill="white"/>
<path fill-rule="evenodd" clip-rule="evenodd" d="M5.80798 12.052L5.80856 12.0515C5.92537 11.943 5.98251 11.8118 5.98251 11.6491C5.98251 11.4863 5.92537 11.3551 5.80856 11.2466L5.80798 11.2461L5.80742 11.2456C5.70451 11.1477 5.5031 11.0813 5.16336 11.0813H4.40576V12.2169H5.16336C5.5031 12.2169 5.70451 12.1505 5.80742 12.0526L5.80798 12.052ZM4.27589 12.3467V10.9514H5.16336C5.51219 10.9514 5.75671 11.0181 5.89693 11.1515C6.04056 11.2849 6.11238 11.4507 6.11238 11.6491C6.11238 11.8474 6.04056 12.0133 5.89693 12.1467C5.75671 12.28 5.51219 12.3467 5.16336 12.3467H4.27589ZM4.03991 14.2464C3.94178 14.2464 3.85364 14.2114 3.78393 14.1417C3.71422 14.072 3.6792 13.9838 3.6792 13.8857V10.7462C3.6792 10.6489 3.71365 10.5614 3.78223 10.4919C3.85088 10.4189 3.9394 10.3804 4.03991 10.3804H5.20952C5.54774 10.3804 5.83579 10.4371 6.06577 10.5598C6.28925 10.679 6.45771 10.8364 6.56105 11.0351C6.65987 11.2252 6.70907 11.4305 6.70907 11.6491C6.70907 11.8677 6.65987 12.073 6.56105 12.263C6.45771 12.4617 6.28925 12.6192 6.06577 12.7383C5.83579 12.861 5.54774 12.9178 5.20952 12.9178H4.40576V13.8857C4.40576 13.9862 4.36723 14.0747 4.29419 14.1434C4.22475 14.212 4.13725 14.2464 4.03991 14.2464ZM4.20407 14.0499C4.25195 14.0054 4.27589 13.9507 4.27589 13.8857V12.7879H5.20952C5.53442 12.7879 5.79946 12.7332 6.00465 12.6237C6.20985 12.5143 6.35691 12.3741 6.44582 12.2031C6.53474 12.0321 6.5792 11.8474 6.5792 11.6491C6.5792 11.4507 6.53474 11.266 6.44582 11.095C6.35691 10.9241 6.20985 10.7838 6.00465 10.6744C5.79946 10.565 5.53442 10.5102 5.20952 10.5102H4.03991C3.97494 10.5102 3.92022 10.5342 3.87576 10.5821C3.8313 10.6265 3.80907 10.6812 3.80907 10.7462V13.8857C3.80907 13.9507 3.8313 14.0054 3.87576 14.0499C3.92022 14.0943 3.97494 14.1165 4.03991 14.1165C4.10489 14.1165 4.15961 14.0943 4.20407 14.0499ZM9.93662 13.9439L9.93626 13.9441C9.64116 14.1309 9.28578 14.2208 8.87674 14.2208H7.84564C7.7475 14.2208 7.65936 14.1857 7.58965 14.116C7.51994 14.0463 7.48492 13.9582 7.48492 13.86V10.7462C7.48492 10.6489 7.51937 10.5614 7.58794 10.4919C7.65659 10.4189 7.74512 10.3804 7.84564 10.3804H8.87674C9.28588 10.3804 9.64135 10.472 9.93644 10.6622C10.2287 10.8451 10.4506 11.0848 10.5985 11.3807C10.7442 11.672 10.8175 11.9791 10.8175 12.3006C10.8175 12.622 10.7442 12.9291 10.5985 13.2205C10.4506 13.5164 10.2288 13.7577 9.93662 13.9439ZM9.8668 10.7719C9.59663 10.5974 9.26661 10.5102 8.87674 10.5102H7.84564C7.78066 10.5102 7.72594 10.5342 7.68148 10.5821C7.63702 10.6265 7.61479 10.6812 7.61479 10.7462V13.86C7.61479 13.925 7.63702 13.9797 7.68148 14.0242C7.72594 14.0687 7.78066 14.0909 7.84564 14.0909H8.87674C9.26661 14.0909 9.59663 14.0054 9.8668 13.8344C10.1404 13.66 10.3456 13.436 10.4824 13.1624C10.6192 12.8888 10.6876 12.6015 10.6876 12.3006C10.6876 11.9996 10.6192 11.7123 10.4824 11.4387C10.3456 11.1652 10.1404 10.9429 9.8668 10.7719ZM9.93872 11.6622L9.93849 11.6618C9.83461 11.4785 9.68867 11.3368 9.49799 11.2353L9.49728 11.235L9.49657 11.2346C9.30653 11.1304 9.08243 11.0762 8.82031 11.0762H8.21148V13.525H8.82031C9.08271 13.525 9.3071 13.4724 9.49728 13.3713C9.6888 13.2661 9.83496 13.124 9.93874 12.944C10.0424 12.7609 10.096 12.5477 10.096 12.3006C10.096 12.0532 10.0423 11.842 9.93896 11.6626L9.93872 11.6622ZM9.55901 13.4856C9.34698 13.5984 9.10074 13.6549 8.82031 13.6549H8.08161V10.9463H8.82031C9.10074 10.9463 9.34698 11.0044 9.55901 11.1207C9.77105 11.2336 9.9352 11.3926 10.0515 11.5978C10.1678 11.7995 10.2259 12.0338 10.2259 12.3006C10.2259 12.5673 10.1678 12.8033 10.0515 13.0085C9.9352 13.2103 9.77105 13.3693 9.55901 13.4856ZM12.0571 14.2464C11.959 14.2464 11.8709 14.2114 11.8012 14.1417C11.7314 14.072 11.6964 13.9838 11.6964 13.8857V10.7462C11.6964 10.6489 11.7309 10.5614 11.7994 10.4919C11.8681 10.4189 11.9566 10.3804 12.0571 10.3804H14.0527C14.148 10.3804 14.2328 10.4159 14.2984 10.485C14.3676 10.5507 14.4031 10.6355 14.4031 10.7308C14.4031 10.8271 14.3669 10.9125 14.2965 10.9784C14.2298 11.0441 14.1455 11.0762 14.0527 11.0762H12.423V11.9501H13.8731C13.9685 11.9501 14.0533 11.9857 14.1189 12.0548C14.188 12.1204 14.2236 12.2052 14.2236 12.3006C14.2236 12.3968 14.1874 12.4823 14.117 12.5481C14.0503 12.6139 13.9659 12.6459 13.8731 12.6459H12.423V13.8857C12.423 13.9862 12.3845 14.0747 12.3114 14.1434C12.242 14.212 12.1545 14.2464 12.0571 14.2464ZM12.2213 14.0499C12.2692 14.0054 12.2931 13.9507 12.2931 13.8857V12.516H13.8731C13.9347 12.516 13.986 12.4955 14.027 12.4545C14.0715 12.4134 14.0937 12.3621 14.0937 12.3006C14.0937 12.239 14.0715 12.1877 14.027 12.1467C13.986 12.1022 13.9347 12.08 13.8731 12.08H12.2931V10.9463H14.0527C14.1142 10.9463 14.1655 10.9258 14.2066 10.8847C14.251 10.8437 14.2732 10.7924 14.2732 10.7308C14.2732 10.6693 14.251 10.618 14.2066 10.5769C14.1655 10.5325 14.1142 10.5102 14.0527 10.5102H12.0571C11.9922 10.5102 11.9374 10.5342 11.893 10.5821C11.8485 10.6265 11.8263 10.6812 11.8263 10.7462V13.8857C11.8263 13.9507 11.8485 14.0054 11.893 14.0499C11.9374 14.0943 11.9922 14.1165 12.0571 14.1165C12.1221 14.1165 12.1768 14.0943 12.2213 14.0499Z" fill="white"/>
<g filter="url(#filter0_d_1156_9186)">
<path d="M17.6624 6.62338C14.0044 6.62338 11.0391 3.65799 11.0391 0L17.6624 6.62338Z" fill="url(#paint1_linear_1156_9186)"/>
</g>
<defs>
<filter id="filter0_d_1156_9186" x="-11.9609" y="-24" width="56.6235" height="56.6233" filterUnits="userSpaceOnUse" color-interpolation-filters="sRGB">
<feFlood flood-opacity="0" result="BackgroundImageFix"/>
<feColorMatrix in="SourceAlpha" type="matrix" values="0 0 0 0 0 0 0 0 0 0 0 0 0 0 0 0 0 0 127 0" result="hardAlpha"/>
<feOffset dx="2" dy="1"/>
<feGaussianBlur stdDeviation="12.5"/>
<feColorMatrix type="matrix" values="0 0 0 0 0 0 0 0 0 0 0 0 0 0 0 0 0 0 0.33 0"/>
<feBlend mode="normal" in2="BackgroundImageFix" result="effect1_dropShadow_1156_9186"/>
<feBlend mode="normal" in="SourceGraphic" in2="effect1_dropShadow_1156_9186" result="shape"/>
</filter>
<linearGradient id="paint0_linear_1156_9186" x1="8.83117" y1="0" x2="8.83117" y2="20" gradientUnits="userSpaceOnUse">
<stop stop-color="#FF7981"/>
<stop offset="1" stop-color="#E85567"/>
</linearGradient>
<linearGradient id="paint1_linear_1156_9186" x1="14.3508" y1="0" x2="14.3508" y2="6.62338" gradientUnits="userSpaceOnUse">
<stop stop-color="#D03954"/>
<stop offset="1" stop-color="#C02A3C"/>
</linearGradient>
</defs>
</svg>
