<svg width="18" height="20" viewBox="0 0 18 20" fill="none" xmlns="http://www.w3.org/2000/svg">
<path d="M16.2338 20H1.42857C0.639594 20 0 19.3604 0 18.5714V1.42857C0 0.639594 0.639593 0 1.42857 0H11.039L17.6623 6.62338V18.5714C17.6623 19.3604 17.0227 20 16.2338 20Z" fill="url(#paint0_linear_1267_9226)"/>
<g opacity="0.27" filter="url(#filter0_f_1267_9226)">
<rect x="3.1167" y="9.67529" width="11.5584" height="5.45455" fill="#0072A2" style="mix-blend-mode:darken"/>
</g>
<path d="M3.40956 14.0909C3.34458 14.0909 3.28986 14.0687 3.2454 14.0242C3.20094 13.9798 3.17871 13.9251 3.17871 13.8601V10.7463C3.17871 10.6813 3.20094 10.6266 3.2454 10.5821C3.28986 10.5342 3.34458 10.5103 3.40956 10.5103H4.44066C4.83053 10.5103 5.16055 10.5975 5.43072 10.7719C5.70432 10.9429 5.90951 11.1652 6.04631 11.4388C6.18311 11.7124 6.2515 11.9997 6.2515 12.3006C6.2515 12.6016 6.18311 12.8888 6.04631 13.1624C5.90951 13.436 5.70432 13.66 5.43072 13.8344C5.16055 14.0054 4.83053 14.0909 4.44066 14.0909H3.40956ZM4.38423 13.6549C4.66466 13.6549 4.9109 13.5985 5.12293 13.4856C5.33497 13.3693 5.49912 13.2103 5.6154 13.0085C5.73168 12.8033 5.78981 12.5674 5.78981 12.3006C5.78981 12.0339 5.73168 11.7996 5.6154 11.5978C5.49912 11.3926 5.33497 11.2336 5.12293 11.1207C4.9109 11.0045 4.66466 10.9463 4.38423 10.9463H3.64553V13.6549H4.38423Z" fill="white"/>
<path d="M8.97534 14.1422C8.61625 14.1422 8.30162 14.0636 8.03145 13.9063C7.76127 13.7489 7.55266 13.5318 7.4056 13.2548C7.25855 12.9778 7.1816 12.6597 7.17476 12.3006C7.1816 11.9415 7.25855 11.6235 7.4056 11.3465C7.55266 11.0694 7.76127 10.8523 8.03145 10.695C8.30162 10.5376 8.61625 10.459 8.97534 10.459C9.33443 10.459 9.64736 10.5376 9.91411 10.695C10.1843 10.8523 10.3929 11.0711 10.54 11.3516C10.6904 11.6286 10.7691 11.9449 10.7759 12.3006C10.7691 12.6563 10.6904 12.9743 10.54 13.2548C10.3929 13.5318 10.1843 13.7489 9.91411 13.9063C9.64736 14.0636 9.33443 14.1422 8.97534 14.1422ZM8.97534 13.7062C9.24894 13.7062 9.48662 13.6446 9.6884 13.5215C9.89017 13.3984 10.0441 13.2308 10.1501 13.0188C10.2561 12.8068 10.3091 12.5674 10.3091 12.3006C10.3091 12.0339 10.2561 11.7945 10.1501 11.5824C10.0441 11.3704 9.89017 11.2028 9.6884 11.0797C9.48662 10.9566 9.24894 10.895 8.97534 10.895C8.69833 10.895 8.45894 10.9566 8.25716 11.0797C8.05881 11.2028 7.90662 11.3704 7.8006 11.5824C7.69459 11.7945 7.64158 12.0339 7.64158 12.3006C7.64158 12.5674 7.69459 12.8068 7.8006 13.0188C7.90662 13.2308 8.05881 13.3984 8.25716 13.5215C8.45894 13.6446 8.69833 13.7062 8.97534 13.7062Z" fill="white"/>
<path d="M13.4923 14.1422C13.1503 14.1422 12.8425 14.0687 12.5689 13.9216C12.2988 13.7712 12.085 13.5574 11.9277 13.2804C11.7738 13 11.6969 12.6734 11.6969 12.3006C11.6969 11.9278 11.7738 11.6029 11.9277 11.3259C12.085 11.0455 12.2988 10.8318 12.5689 10.6847C12.8425 10.5342 13.1503 10.459 13.4923 10.459C13.7249 10.459 13.9318 10.4863 14.113 10.5411C14.2977 10.5958 14.4807 10.6744 14.6619 10.777C14.7372 10.8181 14.7748 10.8831 14.7748 10.972C14.7748 11.0233 14.756 11.0694 14.7184 11.1105C14.6807 11.1481 14.6311 11.1669 14.5696 11.1669C14.5354 11.1669 14.5046 11.1601 14.4773 11.1464C14.3268 11.0677 14.1797 11.0079 14.0361 10.9668C13.8924 10.9258 13.7266 10.9053 13.5385 10.9053C13.2444 10.9053 12.993 10.9668 12.7844 11.09C12.5792 11.2097 12.4236 11.3755 12.3176 11.5876C12.215 11.7962 12.1637 12.0339 12.1637 12.3006C12.1637 12.5674 12.215 12.8068 12.3176 13.0188C12.4236 13.2274 12.5792 13.3933 12.7844 13.5164C12.993 13.6361 13.2444 13.6959 13.5385 13.6959C13.7266 13.6959 13.8924 13.6754 14.0361 13.6344C14.1797 13.5933 14.3268 13.5335 14.4773 13.4548C14.5046 13.4411 14.5354 13.4343 14.5696 13.4343C14.6311 13.4343 14.6807 13.4531 14.7184 13.4907C14.756 13.5284 14.7748 13.5745 14.7748 13.6292C14.7748 13.7182 14.7372 13.7831 14.6619 13.8242C14.4807 13.9268 14.2977 14.0054 14.113 14.0602C13.9318 14.1149 13.7249 14.1422 13.4923 14.1422Z" fill="white"/>
<path fill-rule="evenodd" clip-rule="evenodd" d="M5.50052 13.9439L5.50017 13.9442C5.20507 14.1309 4.84969 14.2208 4.44065 14.2208H3.40954C3.31141 14.2208 3.22326 14.1858 3.15355 14.1161C3.08384 14.0464 3.04883 13.9582 3.04883 13.8601V10.7462C3.04883 10.6489 3.08327 10.5614 3.15185 10.492C3.2205 10.4189 3.30902 10.3804 3.40954 10.3804H4.44065C4.84978 10.3804 5.20525 10.472 5.50034 10.6623C5.79264 10.8451 6.01451 11.0848 6.16246 11.3807C6.30812 11.672 6.38136 11.9791 6.38136 12.3006C6.38136 12.622 6.30812 12.9292 6.16245 13.2205C6.0145 13.5164 5.79268 13.7577 5.50052 13.9439ZM3.24539 10.5821C3.20093 10.6265 3.1787 10.6813 3.1787 10.7462V13.8601C3.1787 13.9251 3.20093 13.9798 3.24539 14.0242C3.28985 14.0687 3.34456 14.0909 3.40954 14.0909H4.44065C4.83052 14.0909 5.16054 14.0054 5.43071 13.8344C5.7043 13.66 5.9095 13.436 6.0463 13.1624C6.18309 12.8888 6.25149 12.6015 6.25149 12.3006C6.25149 11.9996 6.18309 11.7124 6.0463 11.4388C5.9095 11.1652 5.7043 10.9429 5.43071 10.7719C5.16054 10.5975 4.83052 10.5103 4.44065 10.5103H3.40954C3.34456 10.5103 3.28985 10.5342 3.24539 10.5821ZM5.50263 11.6622L5.5024 11.6618C5.39852 11.4785 5.25258 11.3369 5.0619 11.2354L5.06118 11.235L5.06047 11.2346C4.87044 11.1304 4.64633 11.0762 4.38422 11.0762H3.77539V13.525H4.38422C4.64662 13.525 4.87101 13.4724 5.06119 13.3713C5.25269 13.2662 5.39884 13.124 5.50262 12.9441C5.6063 12.761 5.65993 12.5477 5.65993 12.3006C5.65993 12.0532 5.60621 11.842 5.50286 11.6626L5.50263 11.6622ZM5.61539 13.0085C5.49911 13.2103 5.33495 13.3693 5.12292 13.4856C4.91088 13.5985 4.66465 13.6549 4.38422 13.6549H3.64552V10.9463H4.38422C4.66465 10.9463 4.91088 11.0044 5.12292 11.1207C5.33495 11.2336 5.49911 11.3926 5.61539 11.5978C5.73166 11.7996 5.7898 12.0338 5.7898 12.3006C5.7898 12.5673 5.73166 12.8033 5.61539 13.0085ZM7.04485 12.3006L7.0449 12.2981C7.05207 11.9216 7.13296 11.583 7.29088 11.2855C7.44925 10.9872 7.67493 10.7523 7.96609 10.5827C8.25889 10.4122 8.59674 10.3291 8.97533 10.3291C9.35374 10.3291 9.69009 10.4121 9.97977 10.5829C10.2709 10.7525 10.4964 10.9892 10.6545 11.2904C10.8158 11.5877 10.8986 11.9247 10.9058 12.2981L10.9058 12.3006L10.9058 12.3031C10.8986 12.6768 10.8157 13.0153 10.6545 13.3159C10.4962 13.614 10.2707 13.8488 9.97973 14.0183C9.69006 14.189 9.35373 14.2721 8.97533 14.2721C8.59674 14.2721 8.25889 14.189 7.96609 14.0185C7.67493 13.8489 7.44925 13.614 7.29088 13.3156C7.13296 13.0182 7.05207 12.6796 7.0449 12.3031L7.04485 12.3006ZM9.9141 10.6949C9.64734 10.5376 9.33442 10.459 8.97533 10.459C8.61624 10.459 8.30161 10.5376 8.03144 10.6949C7.76126 10.8523 7.55265 11.0694 7.40559 11.3464C7.25853 11.6235 7.18159 11.9415 7.17475 12.3006C7.18159 12.6597 7.25853 12.9777 7.40559 13.2548C7.55265 13.5318 7.76126 13.7489 8.03144 13.9062C8.30161 14.0636 8.61624 14.1422 8.97533 14.1422C9.33442 14.1422 9.64734 14.0636 9.9141 13.9062C10.1843 13.7489 10.3929 13.5318 10.5399 13.2548C10.6904 12.9743 10.7691 12.6563 10.7759 12.3006C10.7691 11.9449 10.6904 11.6286 10.5399 11.3516C10.3929 11.0711 10.1843 10.8523 9.9141 10.6949ZM8.97533 13.5763C9.22888 13.5763 9.44237 13.5195 9.62074 13.4106C9.80165 13.3003 9.93876 13.151 10.0339 12.9607C10.1298 12.7688 10.1792 12.5497 10.1792 12.3006C10.1792 12.0515 10.1298 11.8323 10.0339 11.6405C9.93876 11.4502 9.80165 11.3009 9.62074 11.1905C9.44237 11.0817 9.22888 11.0249 8.97533 11.0249C8.71822 11.0249 8.50324 11.0818 8.3252 11.1903C8.14781 11.3005 8.01212 11.4498 7.91675 11.6405C7.82082 11.8323 7.77144 12.0515 7.77144 12.3006C7.77144 12.5497 7.82082 12.7688 7.91675 12.9607C8.01212 13.1514 8.14781 13.3007 8.3252 13.4109C8.50324 13.5194 8.71822 13.5763 8.97533 13.5763ZM8.25715 11.0797C8.45892 10.9566 8.69832 10.895 8.97533 10.895C9.24892 10.895 9.48661 10.9566 9.68838 11.0797C9.89016 11.2028 10.0441 11.3704 10.1501 11.5824C10.2561 11.7944 10.3091 12.0338 10.3091 12.3006C10.3091 12.5673 10.2561 12.8067 10.1501 13.0188C10.0441 13.2308 9.89016 13.3984 9.68838 13.5215C9.48661 13.6446 9.24892 13.7062 8.97533 13.7062C8.69832 13.7062 8.45892 13.6446 8.25715 13.5215C8.05879 13.3984 7.90661 13.2308 7.80059 13.0188C7.69457 12.8067 7.64157 12.5673 7.64157 12.3006C7.64157 12.0338 7.69457 11.7944 7.80059 11.5824C7.90661 11.3704 8.05879 11.2028 8.25715 11.0797ZM12.5066 14.0356L12.5057 14.0351C12.2141 13.8727 11.9835 13.6416 11.8148 13.3445L11.8143 13.3437L11.8138 13.3429C11.6478 13.0403 11.567 12.6916 11.567 12.3006C11.567 11.9097 11.6478 11.5623 11.8142 11.2628L11.8144 11.2624C11.9831 10.9617 12.2141 10.73 12.5066 10.5708C12.8011 10.4088 13.1307 10.3291 13.4923 10.3291C13.7346 10.3291 13.9545 10.3576 14.1502 10.4166C14.3447 10.4743 14.5363 10.5568 14.7251 10.6635C14.7802 10.6938 14.8268 10.7359 14.8589 10.7915C14.8912 10.8471 14.9046 10.9089 14.9046 10.972C14.9046 11.0586 14.8716 11.1355 14.8141 11.1982L14.8122 11.2003L14.8102 11.2023C14.7443 11.2681 14.6597 11.2968 14.5696 11.2968C14.5176 11.2968 14.4666 11.2862 14.4192 11.2625L14.4181 11.262L14.4171 11.2615C14.2734 11.1863 14.1345 11.13 14.0004 11.0917C13.8709 11.0547 13.7175 11.0351 13.5385 11.0351C13.2626 11.0351 13.0351 11.0928 12.8504 11.2018L12.8498 11.2021C12.6665 11.3091 12.5286 11.456 12.4339 11.6453C12.3414 11.8335 12.2935 12.051 12.2935 12.3006C12.2935 12.5499 12.3413 12.7691 12.4339 12.9611C12.5284 13.1465 12.6663 13.2938 12.8501 13.4044C13.0349 13.5101 13.2626 13.566 13.5385 13.566C13.7175 13.566 13.8709 13.5465 14.0004 13.5095C14.1345 13.4712 14.2734 13.4148 14.4171 13.3397L14.4181 13.3392L14.4192 13.3387C14.4666 13.3149 14.5176 13.3044 14.5696 13.3044C14.6597 13.3044 14.7443 13.3331 14.8102 13.3989C14.8729 13.4616 14.9046 13.5412 14.9046 13.6292C14.9046 13.6923 14.8912 13.7541 14.8589 13.8097C14.8268 13.8653 14.7802 13.9074 14.7251 13.9376C14.5363 14.0444 14.3447 14.1269 14.1503 14.1846C13.9545 14.2436 13.7347 14.2721 13.4923 14.2721C13.1311 14.2721 12.8018 14.1942 12.5074 14.036L12.5066 14.0356ZM14.113 14.0601C14.2977 14.0054 14.4807 13.9268 14.6619 13.8242C14.7372 13.7831 14.7748 13.7181 14.7748 13.6292C14.7748 13.5745 14.756 13.5283 14.7183 13.4907C14.6807 13.4531 14.6311 13.4343 14.5696 13.4343C14.5354 13.4343 14.5046 13.4411 14.4772 13.4548C14.3268 13.5335 14.1797 13.5933 14.0361 13.6344C13.8924 13.6754 13.7266 13.6959 13.5385 13.6959C13.2444 13.6959 12.993 13.6361 12.7844 13.5164C12.5792 13.3933 12.4236 13.2274 12.3176 13.0188C12.215 12.8067 12.1637 12.5673 12.1637 12.3006C12.1637 12.0338 12.215 11.7962 12.3176 11.5875C12.4236 11.3755 12.5792 11.2096 12.7844 11.0899C12.993 10.9668 13.2444 10.9053 13.5385 10.9053C13.7266 10.9053 13.8924 10.9258 14.0361 10.9668C14.1797 11.0079 14.3268 11.0677 14.4772 11.1464C14.5046 11.1601 14.5354 11.1669 14.5696 11.1669C14.6311 11.1669 14.6807 11.1481 14.7183 11.1105C14.756 11.0694 14.7748 11.0233 14.7748 10.972C14.7748 10.883 14.7372 10.8181 14.6619 10.777C14.4807 10.6744 14.2977 10.5958 14.113 10.541C13.9318 10.4863 13.7249 10.459 13.4923 10.459C13.1503 10.459 12.8425 10.5342 12.5689 10.6847C12.2988 10.8317 12.085 11.0455 11.9277 11.3259C11.7738 11.6029 11.6968 11.9278 11.6968 12.3006C11.6968 12.6734 11.7738 13 11.9277 13.2804C12.085 13.5574 12.2988 13.7712 12.5689 13.9216C12.8425 14.0687 13.1503 14.1422 13.4923 14.1422C13.7249 14.1422 13.9318 14.1149 14.113 14.0601Z" fill="white"/>
<g filter="url(#filter1_d_1267_9226)">
<path d="M17.6624 6.62338C14.0044 6.62338 11.0391 3.65799 11.0391 0L17.6624 6.62338Z" fill="url(#paint1_linear_1267_9226)"/>
</g>
<defs>
<filter id="filter0_f_1267_9226" x="-35.8833" y="-29.3247" width="89.5586" height="83.4546" filterUnits="userSpaceOnUse" color-interpolation-filters="sRGB">
<feFlood flood-opacity="0" result="BackgroundImageFix"/>
<feBlend mode="normal" in="SourceGraphic" in2="BackgroundImageFix" result="shape"/>
<feGaussianBlur stdDeviation="19.5" result="effect1_foregroundBlur_1267_9226"/>
</filter>
<filter id="filter1_d_1267_9226" x="-11.9609" y="-24" width="56.6235" height="56.6233" filterUnits="userSpaceOnUse" color-interpolation-filters="sRGB">
<feFlood flood-opacity="0" result="BackgroundImageFix"/>
<feColorMatrix in="SourceAlpha" type="matrix" values="0 0 0 0 0 0 0 0 0 0 0 0 0 0 0 0 0 0 127 0" result="hardAlpha"/>
<feOffset dx="2" dy="1"/>
<feGaussianBlur stdDeviation="12.5"/>
<feColorMatrix type="matrix" values="0 0 0 0 0 0 0 0 0 0 0 0 0 0 0 0 0 0 0.33 0"/>
<feBlend mode="normal" in2="BackgroundImageFix" result="effect1_dropShadow_1267_9226"/>
<feBlend mode="normal" in="SourceGraphic" in2="effect1_dropShadow_1267_9226" result="shape"/>
</filter>
<linearGradient id="paint0_linear_1267_9226" x1="8.83117" y1="0" x2="8.83117" y2="20" gradientUnits="userSpaceOnUse">
<stop stop-color="#6ABDF8"/>
<stop offset="1" stop-color="#008BD6"/>
</linearGradient>
<linearGradient id="paint1_linear_1267_9226" x1="14.3508" y1="0" x2="14.3508" y2="6.62338" gradientUnits="userSpaceOnUse">
<stop stop-color="#009FE3"/>
<stop offset="1" stop-color="#0087C1"/>
</linearGradient>
</defs>
</svg>
