<svg width="24" height="24" viewBox="0 0 24 24" fill="none" xmlns="http://www.w3.org/2000/svg">
<rect x="2" y="2" width="20" height="20" rx="10" fill="#31A961"/>
<path d="M10.3215 13.5841L15.2733 8.63235C15.4271 8.47848 15.623 8.40155 15.8608 8.40155C16.0986 8.40155 16.2944 8.47848 16.4483 8.63235C16.6021 8.78622 16.6791 8.98206 16.6791 9.21985C16.6791 9.45765 16.6021 9.65348 16.4483 9.80735L10.909 15.3466C10.7411 15.5145 10.5453 15.5984 10.3215 15.5984C10.0977 15.5984 9.90185 15.5145 9.73399 15.3466L7.55185 13.1645C7.39798 13.0106 7.32104 12.8148 7.32104 12.577C7.32104 12.3392 7.39798 12.1434 7.55185 11.9895C7.70572 11.8356 7.90155 11.7587 8.13935 11.7587C8.37715 11.7587 8.57298 11.8356 8.72685 11.9895L10.3215 13.5841Z" fill="white"/>
</svg>
