<svg width="24" height="24" viewBox="0 0 24 24" fill="none" xmlns="http://www.w3.org/2000/svg">
<path opacity="0.4" d="M21.5 12C21.5 17.2467 17.2467 21.5 12 21.5C6.75329 21.5 2.5 17.2467 2.5 12C2.5 6.75329 6.75329 2.5 12 2.5C17.2467 2.5 21.5 6.75329 21.5 12Z" fill="#6A7186" stroke="#6A7186"/>
<path d="M15.25 10.73V11.1314L15.642 11.2182C16.1523 11.3311 16.4209 11.5307 16.5887 11.8236C16.7766 12.1516 16.88 12.6673 16.88 13.5V14.5C16.88 15.5809 16.705 16.1179 16.4114 16.4114C16.1179 16.705 15.5809 16.88 14.5 16.88H9.5C8.41913 16.88 7.88213 16.705 7.58855 16.4114C7.29497 16.1179 7.12 15.5809 7.12 14.5V13.5C7.12 12.6673 7.22338 12.1516 7.41132 11.8236C7.57914 11.5307 7.84775 11.3311 8.35804 11.2182L8.75 11.1314V10.73V10C8.75 9.52844 8.7575 8.71701 9.15299 8.02411C9.51815 7.38435 10.273 6.75 12 6.75C13.727 6.75 14.4819 7.38435 14.847 8.02411C15.2425 8.71701 15.25 9.52844 15.25 10V10.73ZM14.25 11.12H14.75V10.62V10C14.75 9.26074 14.6673 8.53077 14.2131 8.0018C13.7429 7.4541 12.9935 7.25 12 7.25C11.0065 7.25 10.2571 7.4541 9.78689 8.0018C9.33273 8.53077 9.25 9.26074 9.25 10V10.62V11.12H9.75H14.25ZM10.4 14C10.4 14.8861 11.1138 15.6 12 15.6C12.8862 15.6 13.6 14.8861 13.6 14C13.6 13.1139 12.8862 12.4 12 12.4C11.1138 12.4 10.4 13.1139 10.4 14Z" fill="#6A7186" stroke="#6A7186"/>
</svg>
